<?xml version="1.0" encoding="UTF-8" standalone="no"?>
<svg
   xmlns:dc="http://purl.org/dc/elements/1.1/"
   xmlns:cc="http://creativecommons.org/ns#"
   xmlns:rdf="http://www.w3.org/1999/02/22-rdf-syntax-ns#"
   xmlns:svg="http://www.w3.org/2000/svg"
   xmlns="http://www.w3.org/2000/svg"
   id="svg8"
   version="1.1"
   viewBox="0 0 61.131004 61.131"
   height="61.131001mm"
   width="61.131004mm">
  <defs
     id="defs2" />
  <metadata
     id="metadata5">
    <rdf:RDF>
      <cc:Work
         rdf:about="">
        <dc:format>image/svg+xml</dc:format>
        <dc:type
           rdf:resource="http://purl.org/dc/dcmitype/StillImage" />
        <dc:title></dc:title>
      </cc:Work>
    </rdf:RDF>
  </metadata>
  <g
     transform="translate(-60.152536,-37.235536)"
     id="layer1">
    <g
       transform="matrix(1.0440615,0,0,1.0440615,-4.4114524,-2.6607393)"
       id="g4515" />
    <g
       id="g4582">
      <ellipse
         style="opacity:1;fill:#000000;fill-opacity:1;fill-rule:nonzero;stroke:none;stroke-width:2.60979319;stroke-linecap:round;stroke-linejoin:miter;stroke-miterlimit:4;stroke-dasharray:none;stroke-dashoffset:0;stroke-opacity:1"
         id="path4506"
         cx="90.718338"
         cy="67.801262"
         rx="28.597839"
         ry="29.065561" />
      <path
         id="path4498"
         d="m 85.657686,47.454251 c 1.762025,-2.769234 4.627606,-3.916504 7.447559,-4.096788 4.008412,-0.256262 8.139965,0.592664 11.049655,3.033722 4.42506,3.712371 6.19008,8.862049 6.8567,14.058705 1.00791,7.993745 0.52916,23.112778 0.52916,23.112778 0,0 -3.86338,4.734978 -8.58828,7.114612 -5.130573,2.58395 -12.450531,3.585738 -12.450531,3.585738 0,0 3.165771,-21.586453 3.504012,-32.369142 0.03204,-1.021411 -1.433617,-2.788819 -3.148064,-3.699659 -1.949756,-1.035853 -5.413546,-1.374565 -5.413546,-1.374565 0,0 0.278789,-1.29466 0.30352,-2.006152 0.02459,-0.70739 -0.448744,-1.809887 -0.491047,-2.399458 -0.152799,-2.129488 0.400862,-4.959791 0.400862,-4.959791 z"
         style="fill:#e00d0d;fill-opacity:1;fill-rule:evenodd;stroke:none;stroke-width:0.27624124px;stroke-linecap:butt;stroke-linejoin:miter;stroke-opacity:1" />
      <path
         id="path4496"
         d="m 72.072347,55.849439 c 0,0 0.0066,-1.892956 0.837138,-2.276968 1.527817,-0.706411 9.774379,-4.791682 11.27243,-5.517265 0.151283,-0.07328 0.492382,-0.182386 0.492382,-0.182386 0,0 -0.52625,3.681489 -0.317976,4.765512 0.08989,0.467903 0.55577,1.387693 0.591498,1.860662 0.039,0.516158 -0.08596,1.061446 -0.08596,1.061446 l -9.371206,0.08465 z"
         style="fill:#e00d0d;fill-opacity:1;fill-rule:evenodd;stroke:none;stroke-width:0.25271258px;stroke-linecap:butt;stroke-linejoin:miter;stroke-opacity:1" />
      <path
         id="path4500"
         d="m 89.542837,49.344762 c 0,0 0.349784,-1.658486 1.95051,-1.879101 1.466393,-0.202103 2.324583,0.917207 2.324583,0.917207 0,0 -0.776701,1.73547 -1.683317,1.923791 -0.902246,0.187416 -2.591776,-0.961897 -2.591776,-0.961897 z"
         style="fill:#000000;fill-opacity:1;fill-rule:evenodd;stroke:none;stroke-width:0.42321256px;stroke-linecap:butt;stroke-linejoin:miter;stroke-opacity:1" />
      <path
         style="fill:#e00d0d;fill-opacity:1;fill-rule:evenodd;stroke:none;stroke-width:0.26458332px;stroke-linecap:butt;stroke-linejoin:miter;stroke-opacity:1"
         d="m 84.855108,55.782484 -8.318762,4.368187 c 0,0 0.605432,0.190972 0.91874,0.200452 0.253461,0.0076 0.751694,-0.116931 0.751694,-0.116931 l 6.431174,-3.274051 z"
         id="path4517" />
      <text
         xml:space="preserve"
         style="font-style:normal;font-variant:normal;font-weight:normal;font-stretch:normal;font-size:22.79672813px;line-height:125%;font-family:David;-inkscape-font-specification:David;text-align:center;letter-spacing:0px;word-spacing:0px;text-anchor:middle;fill:#e00d0d;fill-opacity:1;stroke:#e00d0d;stroke-width:0.71239775px;stroke-linecap:butt;stroke-linejoin:miter;stroke-opacity:1"
         x="84.283897"
         y="80.749779"
         id="text4523"><tspan
           id="tspan4521"
           x="84.283897"
           y="80.749779"
           style="font-style:normal;font-variant:normal;font-weight:normal;font-stretch:normal;font-family:sans-serif;-inkscape-font-specification:sans-serif;fill:#e00d0d;fill-opacity:1;stroke:#e00d0d;stroke-width:0.71239775px;stroke-opacity:1">D</tspan></text>
      <text
         id="text4533"
         y="80.749779"
         x="101.74638"
         style="font-style:normal;font-variant:normal;font-weight:normal;font-stretch:normal;font-size:22.79672813px;line-height:125%;font-family:David;-inkscape-font-specification:David;text-align:center;letter-spacing:0px;word-spacing:0px;text-anchor:middle;fill:#000000;fill-opacity:1;stroke:#000000;stroke-width:0.71239775px;stroke-linecap:butt;stroke-linejoin:miter;stroke-opacity:1"
         xml:space="preserve"><tspan
           style="font-style:normal;font-variant:normal;font-weight:normal;font-stretch:normal;font-family:sans-serif;-inkscape-font-specification:sans-serif;fill:#000000;fill-opacity:1;stroke:#000000;stroke-width:0.71239775px;stroke-opacity:1"
           y="80.749779"
           x="101.74638"
           id="tspan4531">H</tspan></text>
      <text
         xml:space="preserve"
         style="font-style:normal;font-variant:normal;font-weight:normal;font-stretch:normal;font-size:8.81213951px;line-height:125%;font-family:David;-inkscape-font-specification:David;text-align:center;letter-spacing:0px;word-spacing:0px;text-anchor:middle;fill:#e00d0d;fill-opacity:1;stroke:none;stroke-width:0.27537936px;stroke-linecap:butt;stroke-linejoin:miter;stroke-opacity:1"
         x="-72.095299"
         y="75.88475"
         id="text4539"
         transform="rotate(-90)"><tspan
           id="tspan4537"
           x="-72.095299"
           y="75.88475"
           style="font-style:normal;font-variant:normal;font-weight:normal;font-stretch:normal;font-family:sans-serif;-inkscape-font-specification:sans-serif;fill:#e00d0d;fill-opacity:1;stroke:#e00d0d;stroke-width:0.27537936px;stroke-opacity:1">THE</tspan></text>
      <path
         style="color:#000000;font-style:normal;font-variant:normal;font-weight:normal;font-stretch:normal;font-size:medium;line-height:normal;font-family:sans-serif;font-variant-ligatures:normal;font-variant-position:normal;font-variant-caps:normal;font-variant-numeric:normal;font-variant-alternates:normal;font-feature-settings:normal;text-indent:0;text-align:start;text-decoration:none;text-decoration-line:none;text-decoration-style:solid;text-decoration-color:#000000;letter-spacing:normal;word-spacing:normal;text-transform:none;writing-mode:lr-tb;direction:ltr;text-orientation:mixed;dominant-baseline:auto;baseline-shift:baseline;text-anchor:start;white-space:normal;shape-padding:0;clip-rule:nonzero;display:inline;overflow:visible;visibility:visible;opacity:1;isolation:auto;mix-blend-mode:normal;color-interpolation:sRGB;color-interpolation-filters:linearRGB;solid-color:#000000;solid-opacity:1;vector-effect:none;fill:#000000;fill-opacity:1;fill-rule:nonzero;stroke:none;stroke-width:3.02322984;stroke-linecap:round;stroke-linejoin:miter;stroke-miterlimit:4;stroke-dasharray:none;stroke-dashoffset:0;stroke-opacity:1;color-rendering:auto;image-rendering:auto;shape-rendering:auto;text-rendering:auto;enable-background:accumulate"
         d="m 90.718035,37.235536 c -16.876383,0 -30.565499,13.716357 -30.565499,30.566477 0,16.850119 13.689116,30.564523 30.565499,30.564523 16.876385,0 30.565505,-13.714404 30.565505,-30.564523 0,-16.85012 -13.68912,-30.566477 -30.565505,-30.566477 z m 0,3.000007 c 15.202925,0 24.831915,12.311583 24.831915,27.56647 0,15.254886 -9.62899,24.918677 -24.831915,24.918677 -15.202932,0 -24.831906,-9.663791 -24.831906,-24.918677 0,-15.254887 9.628974,-27.56647 24.831906,-27.56647 z"
         id="ellipse4543" />
    </g>
  </g>
</svg>
